<svg width="55" height="44" viewBox="0 0 55 44" fill="none" xmlns="http://www.w3.org/2000/svg">
<path d="M24.112 0.590105V34.9266C24.112 35.083 24.05 35.233 23.9392 35.3436C23.8284 35.4542 23.6784 35.5164 23.5218 35.5164H19.1391C19.0614 35.5164 18.9849 35.5011 18.9132 35.4716C18.8416 35.4419 18.7765 35.3985 18.7211 35.3437C18.6663 35.2889 18.6229 35.2239 18.5934 35.1523C18.5639 35.0808 18.5482 35.004 18.5488 34.9266V0.590105C18.5482 0.512627 18.5639 0.4359 18.5934 0.364307C18.6229 0.292714 18.6663 0.227659 18.7211 0.172858C18.7759 0.118057 18.8416 0.0745872 18.9132 0.0449279C18.9849 0.0152682 19.0614 -1.1644e-08 19.1391 0H23.5218C23.6784 8.57263e-05 23.8284 0.0622949 23.9392 0.172952C24.05 0.283609 24.112 0.433656 24.112 0.590105Z" fill="#021C2B"/>
<path d="M46.4239 15.1763L41.7303 27.3396C41.699 27.4206 41.6442 27.4904 41.5725 27.5398C41.5009 27.5893 41.4166 27.616 41.3292 27.6164C41.2425 27.6169 41.1576 27.5912 41.0853 27.5426C41.013 27.494 40.9576 27.4248 40.9251 27.3441L34.2405 10.5841C34.2086 10.5037 34.1531 10.4347 34.0815 10.3861C34.0098 10.3375 33.9249 10.3115 33.8388 10.3115H28.6225C28.5394 10.3115 28.4581 10.3321 28.3846 10.3713C28.3117 10.4104 28.2491 10.467 28.2033 10.5361C28.1575 10.6051 28.1292 10.6844 28.1214 10.7669C28.1136 10.8494 28.1262 10.9325 28.1587 11.009L28.4749 11.7633L28.443 11.7019L38.1372 34.7655C37.8993 35.5013 37.5036 36.1767 36.9784 36.7447C36.8375 36.8997 36.6773 37.0361 36.502 37.1505C36.2165 37.3445 35.8997 37.4887 35.5655 37.5767C35.0198 37.7328 34.4537 37.8056 33.8863 37.793H33.8707C33.7912 37.7956 33.7153 37.7995 33.6328 37.8008L30.0312 37.8438C29.9192 37.8451 29.8114 37.8903 29.7319 37.9696C29.6518 38.0489 29.6066 38.1563 29.6048 38.2687L29.5325 42.9248C29.5319 42.9822 29.5422 43.0391 29.5638 43.0924C29.5849 43.1456 29.6168 43.194 29.6572 43.2349C29.6969 43.2758 29.7451 43.3082 29.7981 43.3304C29.8511 43.3526 29.9077 43.3639 29.9655 43.3639H35.1463C39.3194 43.3639 41.3286 42.3037 42.8873 38.4976L51.1613 18.2367C51.2041 18.1322 51.2047 18.0152 51.1625 17.9105C51.1198 17.8058 51.0385 17.7218 50.9349 17.6764L46.4642 15.1995L46.4985 15.1766L46.4239 15.1763Z" fill="#021C2B"/>
<path d="M52.5834 14.83L54.1132 11.0931C54.1487 11.007 54.162 10.9136 54.1523 10.8212C54.1427 10.7287 54.1108 10.64 54.059 10.5628C54.0072 10.4857 53.9367 10.4225 53.8548 10.3788C53.7723 10.3351 53.6808 10.3124 53.588 10.3125L48.603 10.3206C48.5157 10.3206 48.4308 10.347 48.3585 10.3963C48.2868 10.4457 48.2314 10.5157 48.2001 10.5971L46.4258 15.1951H52.039C52.1558 15.1951 52.2702 15.1604 52.3672 15.0954C52.4642 15.0304 52.5395 14.938 52.5834 14.83Z" fill="#8D46EF"/>
<path d="M12.3622 10.4216H5.9601C5.91071 10.4216 5.86132 10.4118 5.81555 10.3928C5.76978 10.3738 5.72762 10.3459 5.69269 10.3108C5.65776 10.2757 5.62945 10.2339 5.61078 10.188C5.59151 10.1421 5.58187 10.0929 5.58187 10.0433V1.7084C5.58187 1.63823 5.5626 1.56945 5.52526 1.50977C5.48852 1.45008 5.43551 1.40185 5.37288 1.37047C5.30964 1.33909 5.23978 1.3258 5.16992 1.33209C5.09945 1.33837 5.03259 1.36399 4.97658 1.40607L0.171053 4.99521C0.123473 5.03041 0.0855271 5.07618 0.0590271 5.12884C0.0325271 5.1815 0.018674 5.2396 0.018674 5.29851V10.0455C0.0162649 10.0771 0.0102386 10.1083 0 10.1383V15.4939C0.0102386 15.5239 0.0168672 15.5549 0.018674 15.5864V28.1597C0.018674 33.9091 3.0192 36.1787 8.48542 36.1787C9.69659 36.1579 10.9023 36.0111 12.0828 35.7406C12.1617 35.7177 12.231 35.6698 12.2803 35.604C12.3291 35.5382 12.3556 35.4582 12.355 35.3761V31.2322C12.3556 31.1767 12.3436 31.1219 12.3207 31.0715C12.2972 31.0212 12.2629 30.9767 12.2201 30.9411C12.178 30.9056 12.128 30.8799 12.0738 30.866C12.0202 30.8521 11.9641 30.8503 11.9093 30.8607C11.0511 31.0268 10.1802 31.1254 9.30632 31.1552C6.79123 31.1552 5.58247 30.5247 5.58247 27.4322V15.5855C5.58247 15.4852 5.62222 15.3891 5.69329 15.3182C5.76375 15.2473 5.86011 15.2074 5.96069 15.2074H12.3622C12.4628 15.2074 12.5592 15.1675 12.6303 15.0965C12.7013 15.0256 12.7411 14.9295 12.7411 14.8291V10.8016C12.7411 10.7517 12.7314 10.7023 12.7128 10.6562C12.6941 10.6101 12.6658 10.5682 12.6309 10.5329C12.5953 10.4975 12.5538 10.4696 12.5074 10.4505C12.4616 10.4313 12.4122 10.4216 12.3622 10.4216Z" fill="#021C2B"/>
</svg>
